<svg width="24" height="24" viewBox="0 0 24 24" fill="none" xmlns="http://www.w3.org/2000/svg">
<rect width="24" height="24" rx="6" fill="#C6EB52"/>
<path fill-rule="evenodd" clip-rule="evenodd" d="M13.3398 6.52569H13.8538C13.9538 6.52569 14.0394 6.60422 14.0394 6.71131C14.068 8.0606 14.3964 9.38134 14.9961 10.595C15.5886 11.7872 17.3877 13.2008 18.8869 13.7219C18.894 13.7219 18.9012 13.7291 18.9083 13.7291C19.0368 13.7933 19.0297 13.9861 18.9012 14.0503L17.3663 14.8999C17.3091 14.9284 17.2734 14.9784 17.2592 15.0427L16.8023 16.856C16.7808 16.9417 16.6952 17.0059 16.6095 16.9916C16.5809 16.9845 16.5524 16.9774 16.531 16.9559C14.9604 15.7423 13.6896 14.1931 12.8044 12.4155C12.6473 12.1013 12.5045 11.7872 12.376 11.466C12.2475 11.7872 12.1047 12.1013 11.9477 12.4155C11.0624 14.1931 9.7845 15.7423 8.22104 16.9559C8.12109 17.0345 7.97117 16.9559 7.95689 16.8346L7.74985 15.0712C7.74271 14.9927 7.69274 14.9284 7.62849 14.8999L5.85799 14.0503C5.72948 13.9861 5.7152 13.7933 5.84371 13.7291C5.85085 13.7219 5.85799 13.7219 5.86513 13.7148C7.32151 13.1936 9.11343 11.7801 9.71311 10.5879C10.3128 9.38134 10.6412 8.05347 10.6698 6.70417C10.6698 6.60422 10.7554 6.51855 10.8554 6.51855H11.4194H13.3398V6.52569Z" fill="#0F1010"/>
</svg>
