<svg width="84" height="24" viewBox="0 0 84 24" fill="none" xmlns="http://www.w3.org/2000/svg">
<rect width="24" height="24" rx="6" fill="#C6EB52"/>
<path fill-rule="evenodd" clip-rule="evenodd" d="M13.3398 6.52569H13.8538C13.9537 6.52569 14.0394 6.60422 14.0394 6.71131C14.068 8.0606 14.3964 9.38134 14.9961 10.595C15.5886 11.7872 17.3877 13.2008 18.8869 13.7219C18.894 13.7219 18.9012 13.7291 18.9083 13.7291C19.0368 13.7933 19.0297 13.9861 18.9012 14.0503L17.3662 14.8999C17.3091 14.9284 17.2734 14.9784 17.2592 15.0427L16.8023 16.856C16.7808 16.9417 16.6952 17.0059 16.6095 16.9916C16.5809 16.9845 16.5524 16.9774 16.531 16.9559C14.9604 15.7423 13.6896 14.1931 12.8043 12.4155C12.6473 12.1013 12.5045 11.7872 12.376 11.466C12.2475 11.7872 12.1047 12.1013 11.9476 12.4155C11.0624 14.1931 9.7845 15.7423 8.22103 16.9559C8.12108 17.0345 7.97116 16.9559 7.95688 16.8346L7.74985 15.0712C7.74271 14.9927 7.69273 14.9284 7.62848 14.8999L5.85798 14.0503C5.72948 13.9861 5.7152 13.7933 5.8437 13.7291C5.85084 13.7219 5.85798 13.7219 5.86512 13.7148C7.3215 13.1936 9.11342 11.7801 9.71311 10.5879C10.3128 9.38134 10.6412 8.05347 10.6697 6.70417C10.6697 6.60422 10.7554 6.51855 10.8554 6.51855H11.4194H13.3398V6.52569Z" fill="#0F1010"/>
<path d="M32 17.8356V9.45205H34.4164V11.4247H34.4658V17.8356H32ZM37.6384 17.8356V12.5096C37.6384 12.0822 37.5233 11.7699 37.2932 11.5726C37.074 11.3644 36.7616 11.2603 36.3562 11.2603C36.0055 11.2603 35.6822 11.3425 35.3863 11.5068C35.1014 11.6603 34.8767 11.8849 34.7123 12.1808C34.5479 12.4658 34.4658 12.8055 34.4658 13.2L34.2521 11.3096C34.526 10.6959 34.9205 10.2082 35.4356 9.84658C35.9616 9.47397 36.5918 9.28767 37.326 9.28767C38.2027 9.28767 38.8822 9.53425 39.3644 10.0274C39.8575 10.5205 40.1041 11.1397 40.1041 11.8849V17.8356H37.6384ZM43.2767 17.8356V12.5096C43.2767 12.0822 43.1616 11.7699 42.9315 11.5726C42.7123 11.3644 42.4 11.2603 41.9945 11.2603C41.6438 11.2603 41.3205 11.3425 41.0247 11.5068C40.7397 11.6603 40.5151 11.8849 40.3507 12.1808C40.1863 12.4658 40.1041 12.8055 40.1041 13.2L39.726 11.3096C40 10.6959 40.4055 10.2082 40.9425 9.84658C41.4904 9.47397 42.1479 9.28767 42.9151 9.28767C43.8247 9.28767 44.5205 9.54521 45.0027 10.0603C45.4959 10.5644 45.7425 11.2274 45.7425 12.0493V17.8356H43.2767Z" fill="#0F1010"/>
<path d="M52.1945 17.8356C52.1288 17.5945 52.0795 17.337 52.0466 17.063C52.0247 16.789 52.0137 16.4712 52.0137 16.1096H51.9479V12.1479C51.9479 11.8082 51.8329 11.5452 51.6027 11.3589C51.3836 11.1616 51.0548 11.063 50.6164 11.063C50.2 11.063 49.8658 11.1342 49.6137 11.2767C49.3726 11.4192 49.2137 11.6274 49.137 11.9014H46.7863C46.8959 11.1452 47.2849 10.5205 47.9534 10.0274C48.6219 9.53425 49.537 9.28767 50.6986 9.28767C51.9041 9.28767 52.8247 9.55616 53.4603 10.0932C54.0959 10.6301 54.4137 11.4027 54.4137 12.411V16.1096C54.4137 16.3836 54.4301 16.663 54.463 16.9479C54.5068 17.2219 54.5726 17.5178 54.6603 17.8356H52.1945ZM49.2685 18C48.4356 18 47.7726 17.7918 47.2795 17.3753C46.7863 16.9479 46.5397 16.3836 46.5397 15.6822C46.5397 14.9041 46.8301 14.2795 47.411 13.8082C48.0027 13.326 48.8247 13.0137 49.8767 12.8712L52.326 12.526V13.9562L50.2877 14.2685C49.8493 14.3342 49.526 14.4548 49.3178 14.6301C49.1096 14.8055 49.0055 15.0466 49.0055 15.3534C49.0055 15.6274 49.1041 15.8356 49.3014 15.9781C49.4986 16.1205 49.7616 16.1918 50.0904 16.1918C50.6055 16.1918 51.0438 16.0548 51.4055 15.7808C51.7671 15.4959 51.9479 15.1671 51.9479 14.7945L52.1781 16.1096C51.937 16.7342 51.5699 17.2055 51.0767 17.5233C50.5836 17.8411 49.9808 18 49.2685 18Z" fill="#0F1010"/>
<path d="M55.8157 17.8356V9.45205H58.2321V11.4247H58.2815V17.8356H55.8157ZM61.6513 17.8356V12.6411C61.6513 12.1808 61.5308 11.8356 61.2897 11.6055C61.0595 11.3753 60.7198 11.2603 60.2705 11.2603C59.8869 11.2603 59.5417 11.3479 59.2349 11.5233C58.939 11.6986 58.7034 11.9397 58.528 12.2466C58.3637 12.5534 58.2815 12.9151 58.2815 13.3315L58.0678 11.3096C58.3417 10.6959 58.7417 10.2082 59.2678 9.84658C59.8048 9.47397 60.4623 9.28767 61.2404 9.28767C62.1719 9.28767 62.8842 9.55068 63.3774 10.0767C63.8705 10.5918 64.1171 11.2877 64.1171 12.1644V17.8356H61.6513Z" fill="#0F1010"/>
<path d="M71.4345 17.8356V15.9781L71.5988 16.011C71.4893 16.6137 71.1605 17.0959 70.6125 17.4575C70.0756 17.8192 69.429 18 68.6728 18C67.9057 18 67.2372 17.8247 66.6673 17.474C66.1084 17.1123 65.6756 16.6082 65.3687 15.9616C65.0619 15.3151 64.9084 14.5534 64.9084 13.6767C64.9084 12.789 65.0673 12.0164 65.3851 11.3589C65.703 10.7014 66.1468 10.1918 66.7166 9.83014C67.2975 9.46849 67.9714 9.28767 68.7386 9.28767C69.5386 9.28767 70.1851 9.47397 70.6783 9.84658C71.1824 10.2192 71.4783 10.7288 71.566 11.3753L71.3851 11.3918V6H73.8509V17.8356H71.4345ZM69.4619 16.0274C70.0427 16.0274 70.5139 15.8247 70.8756 15.4192C71.2372 15.0027 71.418 14.411 71.418 13.6438C71.418 12.8767 71.2317 12.2904 70.8591 11.8849C70.4975 11.4685 70.0208 11.2603 69.429 11.2603C68.8591 11.2603 68.3879 11.4685 68.0153 11.8849C67.6536 12.3014 67.4728 12.8932 67.4728 13.6603C67.4728 14.4274 67.6536 15.0137 68.0153 15.4192C68.3879 15.8247 68.8701 16.0274 69.4619 16.0274Z" fill="#0F1010"/>
<path d="M79.2744 18C78.3429 18 77.5319 17.8192 76.8415 17.4575C76.1511 17.0849 75.6141 16.5699 75.2306 15.9123C74.858 15.2548 74.6717 14.4986 74.6717 13.6438C74.6717 12.7781 74.858 12.0219 75.2306 11.3753C75.6141 10.7178 76.1456 10.2082 76.8251 9.84658C77.5045 9.47397 78.2936 9.28767 79.1922 9.28767C80.058 9.28767 80.8086 9.46301 81.4443 9.8137C82.0799 10.1644 82.573 10.6521 82.9237 11.2767C83.2744 11.9014 83.4497 12.6356 83.4497 13.4795C83.4497 13.6548 83.4443 13.8192 83.4333 13.9726C83.4223 14.1151 83.4059 14.2521 83.384 14.3836H76.1182V12.7562H81.3949L80.9676 13.0521C80.9676 12.3726 80.8032 11.874 80.4744 11.5562C80.1566 11.2274 79.7182 11.063 79.1593 11.063C78.5128 11.063 78.0086 11.2822 77.647 11.7205C77.2963 12.1589 77.121 12.8164 77.121 13.6932C77.121 14.5479 77.2963 15.1836 77.647 15.6C78.0086 16.0164 78.5456 16.2247 79.258 16.2247C79.6525 16.2247 79.9922 16.1589 80.2771 16.0274C80.5621 15.8959 80.7758 15.6822 80.9182 15.3863H83.236C82.9621 16.1973 82.4908 16.8384 81.8223 17.3096C81.1648 17.7699 80.3155 18 79.2744 18Z" fill="#0F1010"/>
</svg>
