<svg width="28" height="28" viewBox="0 0 28 28" fill="none" xmlns="http://www.w3.org/2000/svg">
<rect width="28" height="28" rx="10.5" fill="#D4EB80"/>
<rect x="0.291667" y="0.291667" width="27.4167" height="27.4167" rx="10.2083" stroke="#060606" stroke-opacity="0.08" stroke-width="0.583333"/>
<g clip-path="url(#clip0_4096_616)">
<path d="M20.4651 13.8459C20.4651 13.5691 20.3098 13.3151 20.0624 13.1892C19.4293 12.8668 18.7513 12.5701 17.9915 12.2815C16.7356 11.8 15.8205 10.8709 15.3449 9.59807C15.06 8.8258 14.767 8.1382 14.4497 7.49624C14.3253 7.24593 14.0691 7.08691 13.7901 7.08691C13.511 7.08691 13.2534 7.24593 13.1304 7.49697C12.8139 8.13672 12.5216 8.82433 12.2367 9.59512C11.7611 10.8702 10.8453 11.7993 9.59156 12.28C8.82739 12.5708 8.14862 12.8675 7.51768 13.1892C7.27106 13.3144 7.11572 13.5684 7.11572 13.8452C7.11572 14.122 7.27106 14.376 7.51842 14.5019C8.15303 14.8243 8.83107 15.1217 9.58935 15.4088C10.8453 15.8903 11.7604 16.8194 12.236 18.093C12.5223 18.8682 12.8146 19.5543 13.1304 20.1941C13.2549 20.4451 13.5103 20.6042 13.7901 20.6042C14.0698 20.6042 14.326 20.4451 14.4497 20.1941C14.767 19.5543 15.0593 18.8667 15.3434 18.0952C15.8197 16.8201 16.7363 15.891 17.9886 15.4103C18.7498 15.1217 19.4278 14.825 20.0624 14.5026C20.3098 14.3767 20.4651 14.1234 20.4651 13.8459Z" fill="#4D5910"/>
</g>
<defs>
<clipPath id="clip0_4096_616">
<rect x="7" y="7" width="14" height="14" rx="5.7931" fill="white"/>
</clipPath>
</defs>
</svg>
